<?xml version="1.0" standalone="no"?>
<!DOCTYPE svg PUBLIC "-//W3C//DTD SVG 20010904//EN"
 "http://www.w3.org/TR/2001/REC-SVG-20010904/DTD/svg10.dtd">
<svg version="1.0" xmlns="http://www.w3.org/2000/svg"
 width="1024.000000pt" height="1024.000000pt" viewBox="0 0 1024.000000 1024.000000"
 preserveAspectRatio="xMidYMid meet">

<g transform="translate(0.000000,1024.000000) scale(0.100000,-0.100000)"
fill="#000000" stroke="none">
<path d="M1670 7908 c-1 -6 -2 -224 -1 -233 1 -7 1208 -11 3596 -12 l3595 -2
0 125 0 124 -3595 0 c-1977 0 -3595 -1 -3595 -2z"/>
<path d="M2826 7322 l-1179 -2 6 -272 c4 -149 7 -335 7 -412 l0 -141 380 3
380 3 0 -1518 0 -1518 440 -3 439 -3 1 1517 c0 835 1 1518 3 1519 1 1 165 -1
365 -4 l362 -6 2 378 c1 207 2 396 3 419 0 30 -4 41 -15 42 -8 1 -546 0 -1194
-2z m929 -412 l0 -130 -150 -2 c-82 -2 -257 -2 -387 -1 l-238 2 0 -1509 0
-1508 -117 -4 c-65 -2 -121 -2 -125 0 -5 2 -8 661 -8 1465 0 804 -3 1485 -6
1512 l-6 50 -379 -3 -380 -2 2 125 1 125 842 3 c462 1 866 3 896 5 l55 2 0
-130z"/>
<path d="M7834 7235 c-33 -49 -161 -241 -285 -425 -285 -423 -273 -406 -350
-529 l-64 -104 -3 571 -2 572 -441 0 -441 0 3 -1927 3 -1928 437 -3 436 -3 4
518 c2 285 4 548 4 585 0 55 2 64 14 55 18 -15 361 -534 441 -667 54 -90 174
-277 284 -442 l32 -48 497 -2 c273 -2 497 -2 497 0 0 2 -17 26 -39 55 -21 29
-54 79 -73 112 -108 183 -303 504 -322 530 -13 17 -42 64 -67 105 -24 41 -173
287 -332 545 -310 504 -397 650 -397 668 0 6 8 20 19 31 10 12 48 66 85 121
36 55 80 120 97 145 17 25 96 142 176 260 149 220 267 393 335 490 41 58 81
120 281 425 69 105 153 230 187 278 34 48 61 90 58 92 -2 3 -231 6 -509 7
l-504 3 -61 -90z m532 -208 c4 -4 -2 -17 -13 -30 -23 -26 -180 -252 -338 -487
-61 -91 -147 -217 -190 -280 -44 -63 -139 -205 -211 -315 -73 -110 -159 -238
-192 -285 -33 -47 -76 -116 -95 -155 -19 -38 -54 -90 -76 -113 -23 -24 -44
-55 -47 -68 -3 -13 -10 -24 -15 -24 -5 0 -9 -12 -9 -26 0 -18 -4 -25 -14 -21
-7 3 -26 -8 -42 -24 -17 -17 -34 -27 -44 -24 -11 3 -27 -8 -47 -32 -23 -29
-44 -42 -90 -55 -32 -10 -71 -18 -85 -18 -25 0 -27 -4 -34 -57 -4 -32 -8 -329
-8 -660 l-1 -603 -82 -2 c-46 -1 -104 -2 -130 -3 l-48 0 0 1642 0 1643 138 0
c127 0 138 -1 133 -17 -3 -10 -8 -396 -11 -858 -3 -462 -8 -850 -11 -862 -13
-64 81 14 137 113 12 22 32 50 44 64 13 14 36 45 51 68 16 24 45 68 64 97 19
29 76 110 125 180 50 70 106 151 125 181 19 29 62 91 95 138 33 47 68 97 78
113 9 15 28 44 41 63 53 76 90 131 181 270 52 80 128 192 169 250 40 58 89
128 107 155 l34 50 152 0 c83 0 155 -3 159 -8z m-844 -1905 c25 -37 93 -148
152 -245 59 -98 137 -225 174 -282 37 -57 81 -128 98 -157 17 -29 96 -159 176
-288 148 -241 238 -390 238 -396 0 -2 -71 -4 -157 -4 l-158 0 -37 73 c-44 85
-177 312 -217 371 -16 23 -79 124 -141 226 -62 102 -125 203 -141 225 -58 84
-189 309 -189 327 0 10 16 38 35 63 19 25 49 70 67 100 18 30 38 55 44 55 6 0
31 -31 56 -68z"/>
<path d="M7070 5215 c0 -5 5 -17 10 -25 5 -8 10 -10 10 -5 0 6 -5 17 -10 25
-5 8 -10 11 -10 5z"/>
<path d="M4291 5391 l-3 -1930 867 -1 868 -1 -6 317 c-4 175 -7 365 -7 423 l0
107 -420 -4 -420 -4 0 1511 0 1511 -437 0 -438 0 -4 -1929z m571 415 c-2 -677
0 -1358 3 -1513 l7 -283 422 0 421 0 -1 -113 c0 -61 -1 -120 -2 -129 -2 -16
-42 -17 -557 -18 l-555 0 0 1553 c0 855 -3 1594 -6 1643 l-7 89 139 1 139 2
-3 -1232z"/>
<path d="M1845 5494 c-47 -24 -83 -64 -101 -111 -16 -40 -16 -46 0 -88 11 -28
36 -61 68 -90 45 -40 55 -45 99 -45 84 0 160 53 194 134 21 50 14 91 -25 138
-57 69 -166 98 -235 62z"/>
<path d="M3730 5503 c-63 -24 -130 -114 -130 -173 0 -48 45 -111 108 -151 40
-26 54 -30 95 -26 92 8 176 95 177 183 0 102 -152 203 -250 167z"/>
<path d="M5620 5492 c-19 -10 -49 -40 -67 -67 -61 -88 -37 -183 63 -241 38
-23 53 -26 105 -22 68 5 99 24 143 85 42 60 46 122 12 171 -41 59 -89 86 -160
90 -46 2 -69 -1 -96 -16z"/>
<path d="M8422 5503 c-37 -7 -100 -77 -112 -123 -15 -57 -6 -91 42 -145 54
-62 84 -75 165 -75 87 0 111 13 145 79 32 60 35 104 13 177 -12 42 -21 53 -52
68 -38 19 -154 30 -201 19z"/>
<path d="M1667 3008 c1 -57 3 -114 3 -128 l0 -25 3595 3 3595 2 0 125 0 125
-3597 0 -3598 0 2 -102z"/>
</g>
</svg>
